<svg width="108" height="64" viewBox="0 0 108 64" fill="none" xmlns="http://www.w3.org/2000/svg">
<path d="M63.9333 38.046C62.13 37.1999 60.5356 36.778 59.1502 36.7805C58.395 36.7805 57.792 36.8848 57.3238 37.0997C56.8556 37.3145 56.6202 37.589 56.6202 37.9218C56.6202 38.2546 56.8719 38.5067 57.3653 38.7166C57.8588 38.9265 58.4982 39.0271 59.2534 39.0271C60.7538 39.0271 62.3133 38.7 63.932 38.046H63.9333ZM65.265 38.0634C66.4183 38.652 67.6961 38.9634 68.9945 38.9724C70.9027 38.9724 72.657 38.289 74.2572 36.9221C76.5002 35.0179 78.1277 32.4132 79.1397 29.1081C79.7053 27.2544 79.9885 25.5356 79.9894 23.9518C79.9843 22.9212 79.8422 21.8958 79.5664 20.9017C78.7874 21.8014 78.0625 22.7451 77.3952 23.7283C76.7482 24.6862 75.8197 26.1889 74.6096 28.2363C73.3887 30.3061 72.3666 31.8544 71.5434 32.881C70.6412 33.9886 69.6194 34.9959 68.4961 35.8851C67.834 36.4108 66.757 37.1369 65.265 38.0634V38.0634ZM79.934 20.5453C80.2568 21.6284 80.4234 22.7509 80.4286 23.8798C80.4128 25.7 80.1317 27.5085 79.5941 29.2497C78.5418 32.7841 76.812 35.5486 74.4045 37.543C72.9035 38.8372 70.974 39.5441 68.9807 39.53C68.3302 39.5361 67.6814 39.464 67.0486 39.3152C66.4721 39.1736 65.6485 38.8768 64.5777 38.4248C62.6569 39.1972 60.8725 39.5839 59.2245 39.5847C58.5308 39.6006 57.8391 39.5049 57.1765 39.3015C56.8407 39.1951 56.5422 38.997 56.3156 38.7303C56.1014 38.5072 55.9762 38.2152 55.9631 37.9081C55.9631 37.3824 56.2568 36.9684 56.8442 36.6663C57.4316 36.3641 58.2217 36.2084 59.2144 36.1993C60.7752 36.1993 62.5646 36.7172 64.5828 37.7529C65.9672 36.8102 67.2162 35.6873 68.296 34.4147C69.0185 33.569 69.6075 32.8301 70.0582 32.1793C70.5088 31.5286 71.6756 29.7862 73.5473 26.9323C75.0074 24.735 76.9231 22.4996 79.2945 20.2262C78.7541 18.9843 78.1386 18.0322 77.448 17.3698C76.0257 15.9764 74.1104 15.2806 71.702 15.2822C68.5351 15.2822 65.8532 16.3403 63.6564 18.4565C62.6009 19.4559 61.7351 20.6335 61.0999 21.9338C60.553 23.0204 60.2625 24.2152 60.2503 25.4284C60.2503 26.5975 60.6208 27.5425 61.3617 28.2637C62.0616 28.9541 63.0266 29.2998 64.2568 29.3006C65.9535 29.3006 67.5823 28.6524 69.1431 27.3558C71.2653 25.5832 72.7337 23.0804 73.5485 19.8474L73.8821 19.9529C73.5599 22.0352 72.8735 23.8723 71.8229 25.4644C70.7492 27.0789 69.4238 28.2872 67.8428 29.0659C66.7564 29.6158 65.5533 29.9035 64.3323 29.9054C62.7379 29.9054 61.5149 29.376 60.6632 28.3171C59.9079 27.3807 59.5366 26.2294 59.5366 24.8733C59.5366 23.1347 60.0481 21.4341 61.071 19.7716C62.0793 18.1197 63.5191 16.7655 65.2398 15.851C66.9735 14.9295 68.9035 14.4684 71.0299 14.4675C73.8561 14.4675 76.0886 15.288 77.7275 16.9289C78.4088 17.6095 79.0562 18.579 79.6696 19.8374C81.0366 18.6469 82.3331 17.7138 83.559 17.0382L83.6849 17.4816C82.5496 18.1845 81.3013 19.2074 79.9403 20.5503L79.934 20.5453ZM84.8769 15.0313H87.4661V17.6679C87.4661 18.7309 87.2983 19.4347 86.9626 19.7791C86.6186 20.1343 85.9972 20.3388 85.0985 20.3926C84.9558 20.3597 84.8093 20.346 84.6629 20.3516V19.1457C85.0783 19.1457 85.3859 19.0538 85.5856 18.87C85.7844 18.685 85.8776 18.3286 85.865 17.797H84.8706L84.8769 15.0313Z" fill="white"/>
<path d="M8.8248 31.2504C8.6299 31.4586 8.38222 31.6116 8.10734 31.6938C7.73299 31.7885 7.34691 31.8303 6.96065 31.818H2.85475V26.8107H6.88261C7.30424 26.8035 7.72563 26.8351 8.14132 26.9051C8.43641 26.9563 8.70379 27.1084 8.89655 27.3347C9.12185 27.6638 9.23766 28.2935 9.23766 29.2162C9.23766 30.2172 9.09878 30.894 8.82102 31.2467L8.8248 31.2504ZM9.47178 32.9853V32.9257C10.4007 32.7605 11.0577 32.4401 11.4479 31.9682C11.8877 31.4566 12.1067 30.3861 12.105 28.7567C12.105 27.254 11.8063 26.1719 11.2088 25.5104C10.5291 24.7703 9.22843 24.3998 7.3068 24.3989H0V39.0743H2.85475V34.2198H6.83856C7.21036 34.211 7.58196 34.2439 7.94622 34.3179C8.22519 34.3845 8.47579 34.5361 8.66243 34.7513C8.87154 34.9874 9.0032 35.2806 9.04004 35.592C9.09507 36.0125 9.1203 36.4361 9.11556 36.86V39.0743H11.9842V36.3546C11.9842 35.2592 11.8058 34.4292 11.4492 33.8646C11.0024 33.3678 10.3415 33.0685 9.47303 32.9878" fill="white"/>
<path d="M14.2092 39.0705V24.4014H24.4186V26.8106H17.064V30.4841H24.0423V32.7729H17.064V36.6613H24.4576V39.0705H14.2092Z" fill="white"/>
<path d="M36.686 31.8564V32.8499C36.686 34.1961 36.4943 35.135 36.1108 35.6665C35.8263 36.0763 35.5066 36.3446 35.1466 36.4713C34.6961 36.613 34.2245 36.6781 33.7519 36.6637H29.4497V26.8106H33.5531C34.5084 26.8106 35.2121 26.9348 35.6652 27.1832C35.8744 27.2891 36.0583 27.4378 36.2046 27.6194C36.3509 27.801 36.4562 28.0113 36.5136 28.2363C36.6294 28.6933 36.686 29.354 36.686 30.2233V31.8564ZM38.8623 26.4939C38.0811 25.0997 36.3776 24.4022 33.7519 24.4014H26.5962V39.0742H34.3234C34.8666 39.0692 35.4079 39.0114 35.9396 38.9016C36.4234 38.8166 36.8907 38.6569 37.3242 38.4285C38.817 37.5616 39.5634 35.8275 39.5634 33.2262V30.0967C39.5634 28.5551 39.331 27.3546 38.8661 26.4952" fill="white"/>
<path d="M41.4204 39.0705V24.4014H51.6298V26.8106H44.2752V30.4841H51.2534V32.7729H44.2752V36.6613H51.6688V39.0705H41.4204Z" fill="white"/>
<path d="M91.0349 29.8968V33.7888C91.0373 34.2284 90.9909 34.6669 90.8965 35.0965C90.8352 35.4224 90.7154 35.7349 90.5428 36.0193C90.2703 36.325 89.9053 36.5362 89.5018 36.6216C89.0562 36.7358 88.3975 36.8021 87.5256 36.8203C86.8565 36.8157 86.1887 36.7605 85.5281 36.6551C85.3265 36.622 85.1339 36.5485 84.9622 36.4392C84.7906 36.3298 84.6434 36.1869 84.5299 36.0193C84.2522 35.5664 84.1133 34.7385 84.1133 33.5355V30.0582C84.1167 29.9074 84.1036 29.7567 84.0743 29.6086C84.1334 28.7244 84.258 28.0737 84.4519 27.6502C84.6197 27.2743 84.9524 27.021 85.45 26.8901C85.9535 26.756 86.6597 26.6914 87.581 26.6914C88.0845 26.6914 88.5553 26.7039 88.992 26.7299C89.6994 26.8218 90.2143 27.0367 90.5415 27.3794C90.8688 27.7793 91.0337 28.445 91.0337 29.3665L91.0349 29.8968ZM93.5523 26.9311C93.3182 26.3474 93.1231 25.9761 92.9683 25.8134C92.6738 25.3701 92.2244 25.0373 91.6165 24.81C91.0013 24.5819 90.3577 24.437 89.7032 24.3791C89.0336 24.317 88.3123 24.2847 87.5357 24.2847C86.7201 24.2847 85.9934 24.3116 85.3556 24.3654C84.723 24.42 84.1006 24.5582 83.5053 24.7765C82.9518 24.9604 82.4687 25.3071 82.1207 25.77C81.7642 26.2919 81.5307 26.886 81.4373 27.5086C81.3225 28.259 81.2703 29.0175 81.2812 29.7763V33.7888C81.2812 35.7974 81.6588 37.173 82.414 37.9156C82.9157 38.4493 83.5773 38.8105 84.3021 38.9464C85.2455 39.1256 86.205 39.2088 87.1657 39.1948C88.0946 39.1948 88.8918 39.1695 89.5572 39.119C90.2158 39.0667 90.8641 38.9263 91.4843 38.7017C92.064 38.5096 92.5709 38.1485 92.9381 37.666C93.2391 37.2369 93.4804 36.7699 93.6556 36.2776C93.823 35.792 93.9073 35.1065 93.9073 34.2235V29.4869C93.9073 28.3618 93.7902 27.5098 93.5561 26.9311" fill="white"/>
<path d="M104.719 31.2504C104.524 31.4586 104.277 31.6116 104.002 31.6938C103.628 31.7884 103.242 31.8302 102.856 31.818H98.7493V26.8107H102.777C103.199 26.8035 103.62 26.8351 104.036 26.9051C104.331 26.9563 104.598 27.1084 104.791 27.3347C105.016 27.6638 105.132 28.2935 105.132 29.2162C105.132 30.2172 104.993 30.894 104.716 31.2467L104.719 31.2504ZM105.366 32.9853V32.9257C106.295 32.7605 106.952 32.4401 107.342 31.9682C107.782 31.4566 108.001 30.3861 108 28.7567C108 27.254 107.701 26.1719 107.105 25.5104C106.423 24.7703 105.123 24.3998 103.203 24.3989H95.8945V39.0743H98.7493V34.2198H102.734C103.106 34.2111 103.477 34.244 103.841 34.3179C104.12 34.3845 104.37 34.5361 104.557 34.7513C104.766 34.9874 104.898 35.2806 104.935 35.592C104.99 36.0124 105.015 36.4361 105.01 36.86V39.0743H107.879V36.3546C107.879 35.2592 107.7 34.4292 107.344 33.8646C106.897 33.3678 106.236 33.0685 105.368 32.9878" fill="white"/>
</svg>
